<svg width="873" height="282" viewBox="0 0 873 282" fill="none" xmlns="http://www.w3.org/2000/svg">
<circle cx="117.5" cy="117.5" r="117.5" fill="#17BD95"/>
<circle cx="117.5" cy="117.5" r="98.5" fill="#1AEBB9"/>
<path fill-rule="evenodd" clip-rule="evenodd" d="M117.989 55.0003C117.989 55.0003 117.989 55.0003 117.989 55.0003L61.1566 144.809C60.7352 145.475 61.2137 146.344 62.0016 146.344H101.827C102.38 146.344 102.827 146.791 102.827 147.344V180.807C102.827 181.359 103.275 181.807 103.827 181.807H133.099C133.651 181.807 134.099 181.359 134.099 180.807V147.344C134.099 146.791 134.546 146.344 135.099 146.344H174.909C175.7 146.344 176.178 145.468 175.75 144.803L117.99 55.0003C117.99 55.0003 117.99 55.0003 117.99 55.0003V55.0001C117.99 55 117.99 55 117.989 55V55C117.989 55.0001 117.989 55.0001 117.989 55V55C117.989 55 117.989 55 117.989 55.0001V55.0003Z" fill="#17BD95"/>
<path fill-rule="evenodd" clip-rule="evenodd" d="M118.266 55.4293L117.99 55.0003L117.99 55.0002V55L117.989 55H117.989L117.989 55V55.0003L117.989 55.0003L61.1566 144.809C60.7352 145.475 61.2137 146.344 62.0016 146.344H101.827C102.38 146.344 102.827 146.791 102.827 147.344V180.807C102.827 181.359 103.275 181.807 103.827 181.807H118.266V55.4293Z" fill="#14A481"/>
<path d="M378.864 75.9838H349.488V69.3598C349.488 62.6398 347.856 56.8798 344.592 52.0798C341.52 47.0878 336.24 44.5918 328.752 44.5918C324.72 44.5918 321.456 45.3598 318.96 46.8958C316.464 48.4318 314.448 50.3518 312.912 52.6558C311.376 55.1518 310.32 58.0318 309.744 61.2958C309.168 64.3678 308.88 67.6318 308.88 71.0878C308.88 75.1198 308.976 78.4798 309.168 81.1678C309.552 83.8558 310.32 86.2558 311.472 88.3678C312.624 90.4798 314.256 92.3038 316.368 93.8398C318.672 95.3758 321.744 96.9118 325.584 98.4478L348.048 107.376C354.576 109.872 359.856 112.848 363.888 116.304C367.92 119.568 371.088 123.408 373.392 127.824C375.504 132.432 376.944 137.712 377.712 143.664C378.48 149.424 378.864 156.048 378.864 163.536C378.864 172.176 378 180.24 376.272 187.728C374.544 195.024 371.76 201.264 367.92 206.448C363.888 211.824 358.608 216.048 352.08 219.12C345.552 222.192 337.584 223.728 328.176 223.728C321.072 223.728 314.448 222.48 308.304 219.984C302.16 217.488 296.88 214.032 292.464 209.616C288.048 205.2 284.496 200.112 281.808 194.352C279.312 188.4 278.064 181.968 278.064 175.056V164.112H307.44V173.328C307.44 178.704 308.976 183.6 312.048 188.016C315.312 192.24 320.688 194.352 328.176 194.352C333.168 194.352 337.008 193.68 339.696 192.336C342.576 190.8 344.784 188.688 346.32 186C347.856 183.312 348.72 180.144 348.912 176.496C349.296 172.656 349.488 168.432 349.488 163.824C349.488 158.448 349.296 154.032 348.912 150.576C348.528 147.12 347.76 144.336 346.608 142.224C345.264 140.112 343.44 138.384 341.136 137.04C339.024 135.696 336.144 134.256 332.496 132.72L311.472 124.08C298.8 118.896 290.256 112.08 285.84 103.632C281.616 94.9918 279.504 84.2398 279.504 71.3758C279.504 63.6958 280.56 56.3998 282.672 49.4878C284.784 42.5758 287.952 36.6238 292.176 31.6318C296.208 26.6398 301.296 22.7038 307.44 19.8238C313.776 16.7518 321.264 15.2158 329.904 15.2158C337.2 15.2158 343.824 16.5598 349.776 19.2478C355.92 21.9358 361.2 25.4878 365.616 29.9038C374.448 39.1198 378.864 49.6798 378.864 61.5838V75.9838Z" fill="#383838"/>
<path d="M399.096 75.9838V31.6318H428.472V75.9838H446.616V99.0238H428.472V179.952C428.472 183.408 428.76 186.096 429.336 188.016C430.104 189.936 431.256 191.376 432.792 192.336C434.328 193.296 436.152 193.872 438.264 194.064C440.568 194.256 443.352 194.352 446.616 194.352V222H434.52C427.8 222 422.136 220.944 417.528 218.832C413.112 216.72 409.56 214.032 406.872 210.768C404.184 207.504 402.168 203.856 400.824 199.824C399.672 195.6 399.096 191.568 399.096 187.728V99.0238H384.408V75.9838H399.096Z" fill="#383838"/>
<path d="M542.837 160.08H484.661V179.952C484.661 184.56 485.909 188.112 488.405 190.608C491.093 193.104 494.645 194.352 499.061 194.352C504.629 194.352 508.277 192.72 510.005 189.456C511.925 186.192 513.077 182.928 513.461 179.664H542.837C542.837 192.528 538.901 202.896 531.029 210.768C527.189 214.8 522.581 217.968 517.205 220.272C511.829 222.576 505.781 223.728 499.061 223.728C489.845 223.728 481.973 221.808 475.445 217.968C469.109 214.128 464.213 209.04 460.757 202.704C458.645 198.864 457.205 194.448 456.437 189.456C455.669 184.464 455.285 178.992 455.285 173.04V124.944C455.285 118.992 455.669 113.52 456.437 108.528C457.205 103.536 458.645 99.1198 460.757 95.2798C464.213 88.9438 469.109 83.8558 475.445 80.0158C481.973 76.1758 489.845 74.2558 499.061 74.2558C505.781 74.2558 511.829 75.4078 517.205 77.7118C522.773 80.0158 527.477 83.1838 531.317 87.2158C538.997 95.8558 542.837 106.704 542.837 119.76V160.08ZM484.661 137.04H513.461V120.336C513.461 114.768 512.117 110.64 509.429 107.952C506.933 105.072 503.477 103.632 499.061 103.632C494.645 103.632 491.093 105.072 488.405 107.952C485.909 110.64 484.661 114.768 484.661 120.336V137.04Z" fill="#383838"/>
<path d="M620.055 222V207.024H619.479C615.639 212.4 611.703 216.528 607.671 219.408C603.831 222.288 598.359 223.728 591.255 223.728C587.799 223.728 584.247 223.152 580.599 222C577.143 221.04 573.783 219.12 570.519 216.24C567.255 213.552 564.567 209.712 562.455 204.72C560.535 199.536 559.575 192.912 559.575 184.848C559.575 176.592 560.247 169.392 561.591 163.248C562.935 156.912 565.431 151.632 569.079 147.408C572.535 143.376 577.239 140.4 583.191 138.48C589.143 136.368 596.727 135.312 605.943 135.312C606.903 135.312 607.959 135.312 609.111 135.312C610.263 135.312 611.319 135.408 612.279 135.6C613.239 135.792 614.391 135.888 615.735 135.888C617.079 135.888 618.519 135.984 620.055 136.176V120.912C620.055 115.92 618.999 111.792 616.887 108.528C614.775 105.264 610.935 103.632 605.367 103.632C601.527 103.632 597.975 104.88 594.711 107.376C591.639 109.872 589.623 113.52 588.663 118.32H560.151C560.919 105.264 565.335 94.7038 573.399 86.6398C577.239 82.7998 581.847 79.8238 587.223 77.7118C592.599 75.4078 598.647 74.2558 605.367 74.2558C611.511 74.2558 617.271 75.2158 622.647 77.1358C628.023 79.0558 632.727 81.9358 636.759 85.7758C640.599 89.6158 643.671 94.4158 645.975 100.176C648.279 105.936 649.431 112.656 649.431 120.336V222H620.055ZM620.055 159.216C616.791 158.64 614.103 158.352 611.991 158.352C605.655 158.352 600.183 159.888 595.575 162.96C591.159 165.84 588.951 171.216 588.951 179.088C588.951 184.656 590.295 189.168 592.983 192.624C595.671 196.08 599.415 197.808 604.215 197.808C609.207 197.808 613.047 196.176 615.735 192.912C618.615 189.648 620.055 185.04 620.055 179.088V159.216Z" fill="#383838"/>
<path d="M700.441 174.48C700.441 180.432 701.593 185.232 703.897 188.88C706.201 192.528 709.849 194.352 714.841 194.352C719.257 194.352 722.809 192.72 725.497 189.456C728.185 186 729.529 181.584 729.529 176.208V119.472C729.529 114.864 728.089 111.12 725.209 108.24C722.521 105.168 719.065 103.632 714.841 103.632C709.273 103.632 705.433 105.36 703.321 108.816C701.401 112.272 700.441 116.304 700.441 120.912V174.48ZM729.529 222V208.752C727.609 210.864 725.785 212.88 724.057 214.8C722.329 216.528 720.409 218.064 718.297 219.408C716.185 220.752 713.785 221.808 711.097 222.576C708.409 223.344 705.241 223.728 701.593 223.728C689.305 223.728 680.761 219.12 675.961 209.904C674.233 206.64 672.985 202.608 672.217 197.808C671.449 193.008 671.065 186.576 671.065 178.512V122.928C671.065 112.368 671.353 104.592 671.929 99.5998C673.081 89.9998 677.593 82.7998 685.465 77.9998C689.113 75.5038 694.585 74.2558 701.881 74.2558C707.641 74.2558 712.729 75.5998 717.145 78.2878C721.753 80.7838 725.689 84.4318 728.953 89.2318H729.529V16.9438H758.905V222H729.529Z" fill="#383838"/>
<path d="M770.618 75.9838H801.722L821.882 166.992H822.458L842.33 75.9838H872.57L830.522 247.344C828.986 253.872 826.778 259.248 823.898 263.472C821.21 267.696 818.042 271.152 814.394 273.84C810.746 276.528 806.81 278.352 802.586 279.312C798.554 280.464 794.33 281.04 789.914 281.04H781.85V253.392H788.474C791.354 253.392 793.85 253.008 795.962 252.24C798.074 251.472 799.994 249.744 801.722 247.056C803.258 244.368 804.698 240.528 806.042 235.536C807.386 230.736 808.922 224.016 810.65 215.376L770.618 75.9838Z" fill="#383838"/>
</svg>
