<svg width="604" height="391" viewBox="0 0 604 391" fill="none" xmlns="http://www.w3.org/2000/svg">
<path d="M262.826 244.987C264.237 244.199 265.55 243.554 266.765 243.053C267.979 242.553 269.15 242.288 270.276 242.26C272.528 242.204 274.24 242.962 275.414 244.533C276.584 246.01 277.202 247.877 277.269 250.134C277.341 252.58 276.698 255.09 275.339 257.665C274.083 260.238 272.098 262.405 269.384 264.167C258.652 271.964 249.078 279.073 240.662 285.495C232.245 291.917 224.265 297.48 216.72 302.186C209.275 306.795 201.954 310.413 194.758 313.039C187.562 315.665 179.817 317.082 171.526 317.288C163.745 317.481 157.667 316.314 153.29 313.788C149.015 311.258 146.81 307.689 146.674 303.08C146.663 302.704 146.653 302.375 146.645 302.093C146.634 301.716 146.673 301.292 146.761 300.819C147.088 297.987 148.579 294.703 151.235 290.966C153.891 287.229 157.106 283.337 160.879 279.289C164.653 275.242 168.681 271.142 172.964 266.988C177.247 262.834 181.178 258.924 184.758 255.258C188.438 251.495 191.462 248.079 193.83 245.008C196.198 241.937 197.355 239.461 197.3 237.58C197.266 236.451 196.728 235.57 195.685 234.937C194.642 234.304 192.943 234.017 190.589 234.075C186.494 234.177 182.27 235.129 177.918 236.932C173.666 238.638 169.431 240.955 165.215 243.884C161.098 246.716 157.045 249.97 153.055 253.646C149.168 257.319 145.49 261.129 142.021 265.074C138.654 269.017 135.544 273.001 132.691 277.025C129.939 280.953 127.587 284.588 125.637 287.931C125.053 288.981 124.226 290.46 123.155 292.37C122.084 294.279 120.918 296.426 119.657 298.81C118.395 301.195 117.034 303.676 115.573 306.254C114.212 308.735 112.95 311.119 111.788 313.407C110.624 315.601 109.554 317.558 108.58 319.276C107.712 321.086 107.082 322.325 106.692 322.994C106.205 323.853 105.382 325.474 104.223 327.856C103.166 330.235 101.916 332.996 100.472 336.138C99.0303 339.374 97.4907 342.754 95.8529 346.278C94.3174 349.799 92.8276 353.13 91.3835 356.272C90.0417 359.412 88.8424 362.171 87.7856 364.551C86.7288 366.93 86.0593 368.547 85.7771 369.401C84.8254 371.872 83.716 374.206 82.4489 376.402C81.0794 378.601 79.5481 380.522 77.8549 382.164C76.0621 383.903 74.0534 385.271 71.829 386.267C69.505 387.361 66.9098 387.943 64.0434 388.014C60.3581 388.106 57.3174 387.475 54.9213 386.123C52.4257 384.867 51.1211 382.311 51.0075 378.455C50.9521 376.574 51.2025 374.638 51.7585 372.647C52.3146 370.657 53.0242 368.662 53.8874 366.664C54.7533 364.76 55.6704 362.855 56.6387 360.948C57.5074 359.138 58.3263 357.376 59.0954 355.663C64.3464 346.12 69.6984 336.527 75.1514 326.884C80.6071 317.336 85.8097 307.888 90.7592 298.54C95.8082 289.096 100.453 279.85 104.694 270.803C108.936 261.755 112.42 253.103 115.148 244.846C115.917 243.132 116.972 240.706 118.314 237.566C119.656 234.427 121.204 231.329 122.958 228.274C124.712 225.218 126.683 222.58 128.872 220.361C131.16 218.045 133.634 216.854 136.296 216.788C140.391 216.686 143.382 217.365 145.269 218.824C147.153 220.189 148.137 222.282 148.22 225.104C148.236 225.668 148.16 226.565 147.991 227.792C147.823 229.02 147.606 230.343 147.34 231.762C147.072 233.086 146.751 234.365 146.377 235.598C146.106 236.828 145.825 237.73 145.535 238.302C149.228 235.009 153.23 231.757 157.541 228.543C161.849 225.236 166.32 222.254 170.954 219.597C175.588 216.941 180.339 214.752 185.205 213.03C190.072 211.309 194.962 210.388 199.876 210.266C203.254 210.182 206.592 210.475 209.89 211.146C213.291 211.815 216.293 212.869 218.896 214.311C221.599 215.656 223.803 217.436 225.507 219.653C227.209 221.776 228.103 224.295 228.189 227.211C228.302 231.067 227.144 235.237 224.715 239.722C222.386 244.11 219.392 248.561 215.735 253.076C212.077 257.591 208.11 262.019 203.833 266.361C199.553 270.609 195.519 274.522 191.731 278.099C188.043 281.579 184.905 284.575 182.315 287.087C179.825 289.502 178.541 291.134 178.464 291.983C178.497 293.112 178.985 294.041 179.929 294.77C180.87 295.406 182.415 295.697 184.565 295.644C186.305 295.6 188.842 294.784 192.176 293.195C195.51 291.606 200.143 288.903 206.074 285.084C212.106 281.169 219.688 275.992 228.821 269.552C238.053 263.016 249.388 254.828 262.826 244.987Z" fill="white"/>
<path d="M311.341 233.05C306.53 233.17 301.905 234.414 297.467 236.784C293.029 239.153 289.124 242.215 285.752 245.97C282.379 249.725 279.737 253.932 277.825 258.592C275.911 263.158 275.021 267.745 275.157 272.354C275.213 274.235 275.373 276.208 275.639 278.272C276.004 280.24 276.672 282.059 277.643 283.729C278.615 285.399 279.936 286.778 281.607 287.866C283.38 288.951 285.7 289.458 288.567 289.387C290.819 289.331 293.403 288.373 296.319 286.512C299.335 284.554 302.388 282.125 305.478 279.225C308.668 276.227 311.749 272.997 314.72 269.535C317.689 265.978 320.353 262.524 322.713 259.17C325.073 255.817 326.982 252.805 328.44 250.133C329.898 247.461 330.609 245.514 330.573 244.291C330.52 242.504 329.808 240.921 328.436 239.544C327.06 238.072 325.385 236.843 323.41 235.856C321.434 234.87 319.313 234.17 317.047 233.756C314.881 233.245 312.979 233.01 311.341 233.05ZM418.826 266.806C417.031 268.451 414.639 270.722 411.651 273.62C408.663 276.518 405.221 279.663 401.326 283.054C397.533 286.443 393.434 289.886 389.029 293.385C384.724 296.786 380.257 299.909 375.629 302.754C371.102 305.596 366.612 307.92 362.158 309.725C357.706 311.624 353.484 312.623 349.491 312.722C345.909 312.811 342.817 312.182 340.216 310.835C337.615 309.488 335.411 307.707 333.605 305.493C331.9 303.276 330.597 300.767 329.695 297.966C328.79 295.07 328.293 292.118 328.205 289.108C328.147 287.133 328.243 285.2 328.495 283.312C328.744 281.329 329.202 279.482 329.869 277.771C326.811 281.8 323.298 285.982 319.328 290.317C315.457 294.555 311.218 298.472 306.612 302.069C302.105 305.57 297.324 308.466 292.269 310.756C287.32 313.138 282.234 314.394 277.014 314.524C274.352 314.59 271.214 314.151 267.601 313.205C264.093 312.351 260.719 310.835 257.479 308.656C254.239 306.478 251.491 303.628 249.236 300.107C246.981 296.586 245.778 292.239 245.625 287.066C245.512 283.21 245.99 278.585 247.061 273.194C248.234 267.799 250.015 262.201 252.406 256.4C254.895 250.502 258.054 244.682 261.88 238.939C265.808 233.194 270.472 228.042 275.869 223.484C281.264 218.832 287.454 215.054 294.437 212.151C301.417 209.153 309.258 207.546 317.96 207.33C322.464 207.218 326.42 207.637 329.829 208.588C333.238 209.539 336.137 210.596 338.528 211.76C341.234 213.199 343.637 214.787 345.737 216.523C347.452 215.633 349.22 214.789 351.041 213.991C352.557 213.294 354.127 212.69 355.751 212.179C357.475 211.572 358.951 211.253 360.179 211.222C364.069 211.125 367.272 212.034 369.787 213.948C372.302 215.863 373.594 217.995 373.663 220.347C373.682 221.005 373.647 221.524 373.555 221.903C373.096 223.702 372.344 225.98 371.298 228.736C370.354 231.489 369.267 234.575 368.036 237.994C366.802 241.32 365.523 244.834 364.198 248.538C362.972 252.145 361.847 255.703 360.824 259.211C359.8 262.72 358.976 266.034 358.351 269.156C357.723 272.184 357.441 274.779 357.504 276.943C357.587 279.765 358.168 282.103 359.248 283.959C360.324 285.721 362.09 286.571 364.547 286.51C366.083 286.472 367.862 286.004 369.884 285.107C372.006 284.113 374.274 282.833 376.686 281.267C379.099 279.7 381.557 277.945 384.061 276C386.664 273.959 389.165 271.92 391.564 269.884C397.158 265.038 403.092 259.525 409.364 253.345C410.966 252.082 412.534 251.431 414.07 251.393C416.117 251.342 417.834 252.241 419.22 254.089C420.706 255.84 421.482 257.845 421.549 260.102C421.626 262.736 420.719 264.97 418.826 266.806Z" fill="white"/>
<path d="M494.166 216.08C496.972 213.94 499.332 212.328 501.246 211.245C503.26 210.066 504.977 209.223 506.397 208.717C507.813 208.117 509.083 207.756 510.206 207.634C511.432 207.509 512.659 207.432 513.887 207.401C516.037 207.348 517.595 208.062 518.561 209.544C519.523 210.932 520.028 212.425 520.076 214.024C520.114 215.341 519.894 216.57 519.416 217.712L486.96 284.455C491.774 280.947 497.307 277.515 503.56 274.159C509.912 270.707 515.969 267.638 521.729 264.954C527.589 262.172 532.594 259.93 536.744 258.227C540.996 256.521 543.43 255.66 544.044 255.645C546.603 255.581 548.882 256.419 550.879 258.158C552.877 259.896 553.916 262.13 553.996 264.857C554.068 267.303 553.121 269.915 551.154 272.694C549.289 275.47 545.886 278.19 540.944 280.854C533.887 284.701 527.735 288.007 522.489 290.773C517.241 293.445 512.6 295.866 508.566 298.037C504.532 300.208 500.953 302.18 497.829 303.952C494.706 305.724 491.737 307.539 488.923 309.397C486.212 311.253 483.503 313.203 480.798 315.247C478.197 317.382 475.35 319.854 472.257 322.66C470.069 328.362 467.873 333.829 465.671 339.061C463.571 344.29 461.607 348.904 459.778 352.903C458.052 356.899 456.611 360.135 455.454 362.612C454.298 365.088 453.671 366.421 453.574 366.612C445.748 382.62 436.869 390.747 426.94 390.994C422.845 391.096 419.48 389.909 416.846 387.433C414.215 385.051 412.837 381.744 412.713 377.511C412.596 373.56 412.992 369.597 413.899 365.621C414.912 361.737 416.679 357.41 419.203 352.641C421.828 347.869 425.256 342.513 429.486 336.572C433.821 330.722 439.252 323.81 445.779 315.835L474.807 257.931C459.945 275.055 446.399 288.193 434.17 297.345C421.942 306.497 410.402 311.208 399.55 311.478C396.07 311.564 393.079 310.886 390.578 309.442C388.079 308.092 386.78 305.724 386.681 302.338C386.542 297.635 387.614 292.29 389.896 286.303C391.235 283.07 392.583 280.118 393.938 277.449C395.291 274.686 396.697 271.968 398.155 269.296C399.61 266.53 401.111 263.575 402.657 260.43C404.306 257.283 406.046 253.757 407.878 249.852C409.809 245.851 411.877 241.282 414.082 236.144C416.386 230.91 418.922 224.822 421.688 217.882C423.628 214.163 426.212 211.463 429.441 209.783C432.667 208.008 435.815 207.083 438.886 207.006C442.06 206.928 444.742 207.567 446.933 208.924C449.224 210.185 450.403 211.944 450.469 214.202C450.503 215.33 450.327 216.323 449.942 217.18L423.425 271.633C422.072 274.396 421.419 276.578 421.466 278.177C421.508 279.588 422.143 280.278 423.371 280.247C424.497 280.219 425.915 279.666 427.625 278.588C429.335 277.51 430.938 276.294 432.435 274.939L494.166 216.08Z" fill="white"/>
<path d="M109.077 88.7496H79.7007V82.1256C79.7007 75.4056 78.0687 69.6456 74.8046 64.8456C71.7326 59.8536 66.4527 57.3576 58.9646 57.3576C54.9327 57.3576 51.6686 58.1256 49.1726 59.6616C46.6766 61.1976 44.6606 63.1176 43.1246 65.4216C41.5886 67.9176 40.5326 70.7976 39.9566 74.0616C39.3806 77.1336 39.0926 80.3976 39.0926 83.8536C39.0926 87.8856 39.1886 91.2456 39.3806 93.9336C39.7646 96.6216 40.5326 99.0216 41.6846 101.134C42.8366 103.246 44.4686 105.07 46.5807 106.606C48.8846 108.142 51.9566 109.678 55.7966 111.214L78.2607 120.142C84.7887 122.638 90.0686 125.614 94.1006 129.07C98.1326 132.334 101.301 136.174 103.605 140.59C105.717 145.198 107.157 150.478 107.925 156.43C108.693 162.19 109.077 168.814 109.077 176.302C109.077 184.942 108.213 193.006 106.485 200.494C104.757 207.79 101.973 214.03 98.1326 219.214C94.1006 224.59 88.8207 228.814 82.2927 231.886C75.7647 234.958 67.7967 236.494 58.3886 236.494C51.2846 236.494 44.6606 235.246 38.5166 232.75C32.3726 230.254 27.0926 226.798 22.6766 222.382C18.2606 217.966 14.7086 212.878 12.0206 207.118C9.52465 201.166 8.27665 194.734 8.27665 187.822V176.878H37.6526V186.094C37.6526 191.47 39.1886 196.366 42.2607 200.782C45.5246 205.006 50.9006 207.118 58.3886 207.118C63.3807 207.118 67.2207 206.446 69.9087 205.102C72.7886 203.566 74.9966 201.454 76.5327 198.766C78.0686 196.078 78.9326 192.91 79.1247 189.262C79.5087 185.422 79.7007 181.198 79.7007 176.59C79.7007 171.214 79.5087 166.798 79.1247 163.342C78.7407 159.886 77.9726 157.102 76.8206 154.99C75.4766 152.878 73.6526 151.15 71.3486 149.806C69.2367 148.462 66.3567 147.022 62.7086 145.486L41.6846 136.846C29.0126 131.662 20.4686 124.846 16.0526 116.398C11.8286 107.758 9.71665 97.0056 9.71665 84.1416C9.71665 76.4616 10.7726 69.1656 12.8846 62.2536C14.9966 55.3416 18.1646 49.3896 22.3886 44.3976C26.4206 39.4056 31.5086 35.4696 37.6526 32.5896C43.9886 29.5176 51.4766 27.9816 60.1166 27.9816C67.4126 27.9816 74.0366 29.3256 79.9886 32.0136C86.1327 34.7016 91.4127 38.2536 95.8287 42.6696C104.661 51.8856 109.077 62.4456 109.077 74.3496V88.7496ZM129.309 88.7496V44.3976H158.685V88.7496H176.829V111.79H158.685V192.718C158.685 196.174 158.973 198.862 159.549 200.782C160.317 202.702 161.469 204.142 163.005 205.102C164.541 206.062 166.365 206.638 168.477 206.83C170.781 207.022 173.565 207.118 176.829 207.118V234.766H164.733C158.013 234.766 152.349 233.71 147.741 231.598C143.325 229.486 139.773 226.798 137.085 223.534C134.397 220.27 132.381 216.622 131.037 212.59C129.885 208.366 129.309 204.334 129.309 200.494V111.79H114.621V88.7496H129.309ZM273.05 172.846H214.874V192.718C214.874 197.326 216.122 200.878 218.618 203.374C221.306 205.87 224.858 207.118 229.274 207.118C234.842 207.118 238.49 205.486 240.218 202.222C242.138 198.958 243.29 195.694 243.674 192.43H273.05C273.05 205.294 269.114 215.662 261.242 223.534C257.402 227.566 252.794 230.734 247.418 233.038C242.042 235.342 235.994 236.494 229.274 236.494C220.058 236.494 212.186 234.574 205.658 230.734C199.322 226.894 194.426 221.806 190.97 215.47C188.858 211.63 187.418 207.214 186.65 202.222C185.882 197.23 185.498 191.758 185.498 185.806V137.71C185.498 131.758 185.882 126.286 186.65 121.294C187.418 116.302 188.858 111.886 190.97 108.046C194.426 101.71 199.322 96.6216 205.658 92.7816C212.186 88.9416 220.058 87.0216 229.274 87.0216C235.994 87.0216 242.042 88.1736 247.418 90.4776C252.986 92.7816 257.69 95.9496 261.53 99.9816C269.21 108.622 273.05 119.47 273.05 132.526V172.846ZM214.874 149.806H243.674V133.102C243.674 127.534 242.33 123.406 239.642 120.718C237.146 117.838 233.69 116.398 229.274 116.398C224.858 116.398 221.306 117.838 218.618 120.718C216.122 123.406 214.874 127.534 214.874 133.102V149.806ZM350.268 234.766V219.79H349.692C345.852 225.166 341.916 229.294 337.884 232.174C334.044 235.054 328.572 236.494 321.468 236.494C318.012 236.494 314.46 235.918 310.812 234.766C307.356 233.806 303.996 231.886 300.732 229.006C297.468 226.318 294.78 222.478 292.668 217.486C290.748 212.302 289.788 205.678 289.788 197.614C289.788 189.358 290.46 182.158 291.804 176.014C293.148 169.678 295.644 164.398 299.292 160.174C302.748 156.142 307.452 153.166 313.404 151.246C319.356 149.134 326.94 148.078 336.156 148.078C337.116 148.078 338.172 148.078 339.324 148.078C340.476 148.078 341.532 148.174 342.492 148.366C343.452 148.558 344.604 148.654 345.948 148.654C347.292 148.654 348.732 148.75 350.268 148.942V133.678C350.268 128.686 349.212 124.558 347.1 121.294C344.988 118.03 341.148 116.398 335.58 116.398C331.74 116.398 328.188 117.646 324.924 120.142C321.852 122.638 319.836 126.286 318.876 131.086H290.364C291.132 118.03 295.548 107.47 303.612 99.4056C307.452 95.5656 312.06 92.5896 317.436 90.4776C322.812 88.1736 328.86 87.0216 335.58 87.0216C341.724 87.0216 347.484 87.9816 352.86 89.9016C358.236 91.8216 362.94 94.7016 366.972 98.5416C370.812 102.382 373.884 107.182 376.188 112.942C378.492 118.702 379.644 125.422 379.644 133.102V234.766H350.268ZM350.268 171.982C347.004 171.406 344.316 171.118 342.204 171.118C335.868 171.118 330.396 172.654 325.788 175.726C321.372 178.606 319.164 183.982 319.164 191.854C319.164 197.422 320.508 201.934 323.196 205.39C325.884 208.846 329.628 210.574 334.428 210.574C339.42 210.574 343.26 208.942 345.948 205.678C348.828 202.414 350.268 197.806 350.268 191.854V171.982ZM430.653 187.246C430.653 193.198 431.805 197.998 434.109 201.646C436.413 205.294 440.061 207.118 445.053 207.118C449.469 207.118 453.021 205.486 455.709 202.222C458.397 198.766 459.741 194.35 459.741 188.974V132.238C459.741 127.63 458.301 123.886 455.421 121.006C452.733 117.934 449.277 116.398 445.053 116.398C439.485 116.398 435.645 118.126 433.533 121.582C431.613 125.038 430.653 129.07 430.653 133.678V187.246ZM459.741 234.766V221.518C457.821 223.63 455.997 225.646 454.269 227.566C452.541 229.294 450.621 230.83 448.509 232.174C446.397 233.518 443.997 234.574 441.309 235.342C438.621 236.11 435.453 236.494 431.805 236.494C419.517 236.494 410.973 231.886 406.173 222.67C404.445 219.406 403.197 215.374 402.429 210.574C401.661 205.774 401.277 199.342 401.277 191.278V135.694C401.277 125.134 401.565 117.358 402.141 112.366C403.293 102.766 407.805 95.5656 415.677 90.7656C419.325 88.2696 424.797 87.0216 432.093 87.0216C437.853 87.0216 442.941 88.3656 447.357 91.0536C451.965 93.5496 455.901 97.1976 459.165 101.998H459.741V29.7096H489.117V234.766H459.741ZM500.831 88.7496H531.935L552.095 179.758H552.671L572.543 88.7496H602.783L560.735 260.11C559.199 266.638 556.991 272.014 554.111 276.238C551.423 280.462 548.255 283.918 544.607 286.606C540.959 289.294 537.023 291.118 532.799 292.078C528.767 293.23 524.543 293.806 520.127 293.806H512.063V266.158H518.687C521.567 266.158 524.063 265.774 526.175 265.006C528.287 264.238 530.207 262.51 531.935 259.822C533.471 257.134 534.911 253.294 536.255 248.302C537.599 243.502 539.135 236.782 540.863 228.142L500.831 88.7496Z" fill="white"/>
<path d="M264.14 245.78C265.487 244.997 266.74 244.356 267.899 243.858C269.058 243.359 270.175 243.096 271.249 243.069C273.398 243.013 275.033 243.766 276.152 245.329C277.269 246.798 277.859 248.655 277.923 250.9C277.991 253.332 277.377 255.829 276.081 258.39C274.883 260.949 272.988 263.104 270.398 264.856C260.157 272.611 251.021 279.682 242.989 286.069C234.958 292.455 227.342 297.989 220.142 302.669C213.038 307.253 206.052 310.851 199.184 313.463C192.317 316.075 184.927 317.483 177.014 317.688C169.59 317.881 163.789 316.72 159.612 314.207C155.533 311.692 153.429 308.142 153.299 303.558C153.289 303.184 153.279 302.857 153.272 302.576C153.261 302.202 153.298 301.779 153.382 301.309C153.694 298.493 155.117 295.226 157.651 291.509C160.186 287.793 163.254 283.922 166.855 279.896C170.456 275.871 174.3 271.793 178.387 267.662C182.474 263.53 186.226 259.642 189.642 255.996C193.154 252.254 196.039 248.855 198.299 245.801C200.559 242.747 201.663 240.284 201.61 238.413C201.578 237.291 201.065 236.415 200.069 235.785C199.074 235.156 197.453 234.87 195.206 234.928C191.298 235.029 187.268 235.976 183.115 237.769C179.057 239.466 175.016 241.77 170.992 244.683C167.064 247.5 163.196 250.736 159.389 254.392C155.679 258.046 152.169 261.835 148.859 265.759C145.646 269.68 142.678 273.642 139.956 277.645C137.329 281.551 135.085 285.166 133.224 288.491C132.667 289.535 131.877 291.007 130.856 292.906C129.834 294.805 128.721 296.94 127.517 299.311C126.313 301.683 125.014 304.151 123.62 306.714C122.321 309.182 121.118 311.554 120.009 313.829C118.897 316.011 117.877 317.957 116.948 319.666C116.119 321.466 115.518 322.699 115.146 323.364C114.681 324.218 113.896 325.83 112.789 328.199C111.781 330.566 110.588 333.311 109.21 336.436C107.834 339.655 106.365 343.016 104.802 346.521C103.337 350.023 101.915 353.336 100.537 356.461C99.2565 359.583 98.112 362.328 97.1035 364.695C96.095 367.061 95.4561 368.669 95.1869 369.519C94.2787 371.976 93.22 374.297 92.0109 376.482C90.704 378.669 89.2427 380.579 87.6269 382.212C85.9161 383.942 83.9993 385.302 81.8766 386.293C79.6588 387.38 77.1823 387.959 74.447 388.03C70.9302 388.121 68.0285 387.494 65.742 386.149C63.3605 384.901 62.1155 382.358 62.0072 378.523C61.9543 376.652 62.1932 374.727 62.7238 372.747C63.2545 370.767 63.9316 368.784 64.7553 366.796C65.5817 364.903 66.4568 363.008 67.3809 361.111C68.2099 359.311 68.9913 357.559 69.7253 355.855C74.7362 346.364 79.8434 336.823 85.0471 327.233C90.2533 317.736 95.218 308.34 99.9411 299.043C104.759 289.65 109.192 280.454 113.239 271.456C117.286 262.458 120.612 253.852 123.215 245.64C123.949 243.936 124.956 241.523 126.236 238.4C127.517 235.278 128.994 232.197 130.668 229.158C132.341 226.119 134.222 223.496 136.311 221.288C138.494 218.985 140.856 217.8 143.396 217.735C147.303 217.633 150.157 218.308 151.958 219.76C153.756 221.117 154.695 223.199 154.774 226.006C154.79 226.567 154.717 227.458 154.556 228.679C154.395 229.901 154.188 231.217 153.935 232.627C153.679 233.945 153.372 235.216 153.016 236.443C152.757 237.666 152.489 238.563 152.212 239.132C155.737 235.857 159.556 232.622 163.669 229.426C167.78 226.137 172.047 223.171 176.469 220.529C180.891 217.887 185.424 215.709 190.069 213.998C194.713 212.286 199.379 211.369 204.068 211.248C207.292 211.164 210.478 211.456 213.625 212.124C216.87 212.788 219.734 213.838 222.219 215.271C224.798 216.608 226.901 218.38 228.528 220.584C230.152 222.695 231.005 225.201 231.087 228.101C231.195 231.936 230.09 236.084 227.772 240.544C225.549 244.908 222.693 249.335 219.202 253.826C215.712 258.316 211.926 262.72 207.844 267.039C203.76 271.264 199.911 275.155 196.296 278.712C192.777 282.174 189.782 285.154 187.31 287.652C184.934 290.054 183.709 291.677 183.635 292.521C183.667 293.644 184.133 294.568 185.033 295.293C185.931 295.926 187.406 296.215 189.457 296.162C191.118 296.119 193.539 295.307 196.72 293.727C199.902 292.147 204.323 289.458 209.984 285.66C215.739 281.766 222.975 276.617 231.69 270.212C240.5 263.712 251.317 255.568 264.14 245.78Z" fill="url(#paint0_linear)"/>
<path d="M310.437 233.909C305.845 234.028 301.432 235.265 297.197 237.622C292.962 239.978 289.236 243.024 286.017 246.758C282.799 250.493 280.278 254.677 278.454 259.312C276.627 263.853 275.778 268.415 275.907 272.999C275.96 274.87 276.113 276.832 276.367 278.885C276.716 280.842 277.353 282.651 278.28 284.312C279.207 285.973 280.468 287.344 282.062 288.426C283.755 289.506 285.969 290.01 288.704 289.939C290.853 289.884 293.319 288.93 296.102 287.08C298.98 285.133 301.893 282.717 304.842 279.832C307.886 276.851 310.826 273.639 313.661 270.195C316.494 266.658 319.037 263.222 321.289 259.887C323.541 256.552 325.363 253.556 326.754 250.899C328.145 248.241 328.824 246.305 328.789 245.088C328.739 243.311 328.059 241.737 326.75 240.367C325.437 238.903 323.839 237.681 321.953 236.7C320.068 235.719 318.045 235.022 315.882 234.61C313.815 234.102 312 233.868 310.437 233.909ZM413.007 267.481C411.294 269.117 409.011 271.376 406.16 274.258C403.309 277.14 400.024 280.268 396.307 283.641C392.687 287.011 388.776 290.436 384.573 293.915C380.464 297.298 376.202 300.404 371.785 303.234C367.466 306.06 363.18 308.371 358.93 310.167C354.682 312.055 350.653 313.049 346.843 313.148C343.424 313.236 340.473 312.611 337.991 311.271C335.509 309.931 333.406 308.16 331.682 305.958C330.056 303.753 328.812 301.258 327.951 298.471C327.088 295.592 326.614 292.655 326.529 289.662C326.474 287.697 326.566 285.775 326.806 283.897C327.044 281.925 327.481 280.088 328.117 278.386C325.2 282.394 321.847 286.553 318.058 290.864C314.365 295.079 310.32 298.975 305.924 302.553C301.623 306.034 297.061 308.914 292.237 311.192C287.514 313.562 282.661 314.811 277.679 314.94C275.139 315.006 272.145 314.568 268.697 313.628C265.349 312.778 262.129 311.27 259.037 309.104C255.946 306.937 253.324 304.103 251.172 300.601C249.02 297.099 247.871 292.776 247.726 287.631C247.618 283.795 248.074 279.196 249.096 273.834C250.215 268.469 251.915 262.901 254.196 257.132C256.572 251.266 259.586 245.477 263.237 239.766C266.986 234.051 271.436 228.928 276.587 224.394C281.735 219.767 287.642 216.01 294.305 213.123C300.967 210.141 308.449 208.543 316.753 208.328C321.051 208.217 324.827 208.634 328.079 209.579C331.332 210.525 334.099 211.577 336.38 212.735C338.963 214.166 341.256 215.744 343.26 217.471C344.897 216.586 346.584 215.747 348.321 214.953C349.768 214.26 351.266 213.659 352.816 213.151C354.461 212.547 355.869 212.23 357.042 212.199C360.754 212.103 363.81 213.007 366.21 214.911C368.61 216.814 369.843 218.936 369.909 221.274C369.928 221.929 369.893 222.445 369.806 222.822C369.368 224.612 368.65 226.877 367.652 229.618C366.752 232.356 365.714 235.425 364.539 238.826C363.362 242.133 362.141 245.629 360.876 249.312C359.707 252.9 358.634 256.438 357.657 259.928C356.68 263.417 355.893 266.714 355.297 269.818C354.698 272.83 354.428 275.411 354.489 277.563C354.568 280.369 355.123 282.695 356.153 284.541C357.18 286.293 358.866 287.139 361.21 287.078C362.676 287.04 364.373 286.575 366.303 285.682C368.328 284.693 370.492 283.42 372.794 281.863C375.096 280.305 377.442 278.56 379.832 276.625C382.316 274.595 384.703 272.567 386.992 270.542C392.33 265.723 397.992 260.24 403.977 254.093C405.506 252.837 407.003 252.19 408.468 252.152C410.422 252.101 412.06 252.995 413.383 254.833C414.801 256.575 415.542 258.568 415.605 260.813C415.679 263.433 414.813 265.655 413.007 267.481Z" fill="url(#paint1_linear)"/>
<path d="M484.902 217.031C487.579 214.902 489.831 213.299 491.658 212.222C493.581 211.049 495.219 210.211 496.573 209.708C497.925 209.111 499.137 208.752 500.209 208.63C501.378 208.506 502.549 208.429 503.722 208.399C505.773 208.346 507.26 209.056 508.181 210.53C509.1 211.911 509.582 213.396 509.627 214.986C509.664 216.296 509.454 217.518 508.997 218.654L478.025 285.034C482.619 281.545 487.899 278.132 493.866 274.794C499.928 271.361 505.708 268.309 511.204 265.639C516.796 262.872 521.573 260.642 525.533 258.948C529.591 257.252 531.913 256.396 532.499 256.381C534.941 256.317 537.116 257.15 539.022 258.88C540.928 260.609 541.92 262.83 541.996 265.543C542.065 267.975 541.161 270.573 539.284 273.337C537.504 276.098 534.257 278.803 529.541 281.453C522.806 285.278 516.936 288.567 511.93 291.317C506.922 293.975 502.493 296.383 498.643 298.543C494.794 300.702 491.379 302.663 488.398 304.425C485.417 306.187 482.584 307.993 479.899 309.841C477.312 311.687 474.727 313.626 472.145 315.659C469.663 317.783 466.946 320.24 463.995 323.032C461.906 328.703 459.812 334.14 457.71 339.343C455.706 344.544 453.832 349.133 452.087 353.11C450.439 357.085 449.064 360.303 447.96 362.766C446.857 365.228 446.259 366.555 446.166 366.744C438.698 382.665 430.225 390.748 420.75 390.994C416.842 391.095 413.631 389.915 411.118 387.452C408.607 385.083 407.292 381.794 407.173 377.584C407.062 373.655 407.439 369.714 408.305 365.759C409.271 361.896 410.958 357.593 413.366 352.849C415.872 348.104 419.143 342.776 423.18 336.868C427.317 331.05 432.499 324.175 438.727 316.244L466.428 258.654C452.245 275.685 439.319 288.752 427.65 297.854C415.98 306.957 404.968 311.642 394.613 311.91C391.291 311.996 388.437 311.321 386.05 309.885C383.666 308.543 382.426 306.188 382.331 302.82C382.199 298.142 383.222 292.827 385.4 286.872C386.678 283.656 387.964 280.721 389.257 278.066C390.548 275.318 391.889 272.615 393.281 269.958C394.669 267.207 396.102 264.268 397.577 261.14C399.151 258.01 400.812 254.503 402.559 250.62C404.402 246.64 406.375 242.095 408.48 236.985C410.679 231.78 413.098 225.725 415.738 218.823C417.589 215.124 420.055 212.439 423.136 210.768C426.215 209.003 429.219 208.082 432.15 208.006C435.178 207.928 437.738 208.564 439.829 209.914C442.015 211.168 443.14 212.917 443.203 215.163C443.235 216.285 443.068 217.272 442.701 218.125L417.395 272.282C416.104 275.03 415.481 277.199 415.526 278.79C415.566 280.193 416.172 280.879 417.344 280.849C418.419 280.821 419.772 280.271 421.404 279.199C423.035 278.127 424.565 276.917 425.994 275.57L484.902 217.031Z" fill="url(#paint2_linear)"/>
<defs>
<linearGradient id="paint0_linear" x1="143" y1="208" x2="459.5" y2="391" gradientUnits="userSpaceOnUse">
<stop offset="0.0422119" stop-color="#0BF1BA"/>
<stop offset="1" stop-color="#00BB83"/>
</linearGradient>
<linearGradient id="paint1_linear" x1="143" y1="208" x2="459.5" y2="391" gradientUnits="userSpaceOnUse">
<stop offset="0.0422119" stop-color="#0BF1BA"/>
<stop offset="1" stop-color="#00BB83"/>
</linearGradient>
<linearGradient id="paint2_linear" x1="143" y1="208" x2="459.5" y2="391" gradientUnits="userSpaceOnUse">
<stop offset="0.0422119" stop-color="#0BF1BA"/>
<stop offset="1" stop-color="#00BB83"/>
</linearGradient>
</defs>
</svg>
